<?xml version="1.0" encoding="utf-8"?>
<!-- Generator: Adobe Illustrator 22.0.0, SVG Export Plug-In . SVG Version: 6.00 Build 0)  -->
<svg version="1.1" id="Layer_1" xmlns="http://www.w3.org/2000/svg" xmlns:xlink="http://www.w3.org/1999/xlink" x="0px" y="0px"
	 width="205px" height="119px" viewBox="0 0 205 119" enable-background="new 0 0 205 119" xml:space="preserve">
<rect id="background" x="0.008" y="0.162" fill="#FFFFFF" width="204.985" height="118.838"/>
<rect id="blue" x="7.208" y="89.033" fill="#03428D" width="190.561" height="22.751"/>
<g>
	<path fill="#FFFFFF" d="M20.354,98.076c1.293-0.001,2.335,1.041,2.336,2.334c0.001,1.293-1.04,2.335-2.333,2.336
		c-1.291,0.001-2.335-1.04-2.335-2.332C18.021,99.12,19.063,98.077,20.354,98.076z"/>
	<path fill="#FFFFFF" d="M35.574,97.75c-0.366-0.468-1.099-0.688-1.656-0.688c-0.645,0.001-1.538,0.295-1.538,1.072
		c0.001,1.889,4.778,0.67,4.78,4.304c0.001,2.316-1.859,3.415-3.999,3.417c-1.333,0.001-2.505-0.395-3.488-1.302l1.626-1.788
		c0.469,0.614,1.231,0.98,1.993,0.98c0.747-0.001,1.583-0.352,1.582-1.086c-0.002-1.904-4.866-0.876-4.868-4.333
		c-0.002-2.213,1.917-3.371,3.954-3.373c1.172-0.001,2.301,0.306,3.18,1.083L35.574,97.75z"/>
	<path fill="#FFFFFF" d="M49.808,101.579c0.001,2.447-1.492,4.265-4.364,4.267c-2.886,0.002-4.382-1.814-4.384-4.261l-0.004-6.375
		l2.286-0.002l0.004,6.287c0.001,1.274,0.88,2.241,2.097,2.24c1.202-0.001,2.081-0.969,2.08-2.243l-0.004-6.287l2.286-0.002
		L49.808,101.579z"/>
	<path fill="#FFFFFF" d="M54.116,95.202l3.854-0.002c2.154-0.002,3.942,0.686,3.944,3.148c0.001,2.432-1.653,3.181-3.836,3.183
		l-1.671,0.001l0.003,4.043l-2.286,0.002L54.116,95.202z M56.404,99.597l1.524-0.001c0.806-0.001,1.612-0.28,1.611-1.247
		c-0.001-1.071-1.085-1.217-1.965-1.216l-1.172,0.001L56.404,99.597z"/>
	<path fill="#FFFFFF" d="M65.637,95.194l7.048-0.005l0.002,2.11l-4.763,0.003l0.001,1.934l4.499-0.003l0.001,2.111l-4.498,0.003
		l0.002,2.11l5.026-0.003l-0.608,2.11l-6.703,0.004L65.637,95.194z"/>
	<path fill="#FFFFFF" d="M76.982,95.186l4.015-0.003c2.125-0.002,3.913,0.731,3.915,3.148c0.001,1.45-0.775,2.58-2.241,2.845
		l2.641,4.378l-2.74,0.002l-2.172-4.145l-1.128,0.001l0.003,4.147l-2.286,0.002L76.982,95.186z M79.27,99.477l1.348-0.001
		c0.835,0,1.92-0.031,1.919-1.158c-0.001-1.04-0.939-1.201-1.774-1.2l-1.494,0.001L79.27,99.477z"/>
	<path fill="#FFFFFF" d="M88.678,95.178l3.459-0.003l2.393,6.768h0.03l2.398-6.772l3.444-0.002l0.007,10.374l-2.286,0.002
		l-0.006-7.957h-0.029l-2.72,7.959l-1.743,0.001l-2.629-7.955h-0.029l0.006,7.957l-2.286,0.002L88.678,95.178z"/>
	<path fill="#FFFFFF" d="M108.127,95.164l1.891-0.001l4.521,10.371l-2.58,0.001l-0.895-2.197l-4.03,0.003l-0.863,2.198l-2.52,0.002
		L108.127,95.164z M109.01,98.182l-1.259,3.225l2.536-0.002L109.01,98.182z"/>
	<path fill="#FFFFFF" d="M117.774,95.157l4.015-0.003c2.125-0.001,3.913,0.731,3.914,3.149c0.001,1.451-0.774,2.58-2.239,2.844
		l2.64,4.379l-2.741,0.002l-2.172-4.145l-1.128,0.001l0.003,4.147l-2.286,0.001L117.774,95.157z M120.063,99.448l1.348-0.001
		c0.835,0,1.919-0.031,1.919-1.158c-0.001-1.04-0.939-1.201-1.774-1.201l-1.495,0.001L120.063,99.448z"/>
	<path fill="#FFFFFF" d="M129.558,95.149l2.286-0.002l0.003,4.309l4.026-4.312l2.989-0.002l-4.612,4.825l5.015,5.549l-3.195,0.002
		l-4.223-4.92l0.003,4.923l-2.286,0.001L129.558,95.149z"/>
	<path fill="#FFFFFF" d="M144.261,97.161l-2.959,0.002l-0.002-2.022l8.206-0.005l0.002,2.022l-2.96,0.002l0.006,8.352l-2.286,0.002
		L144.261,97.161z"/>
	<path fill="#FFFFFF" d="M152.952,95.133L160,95.127l-0.607,2.111l-4.153,0.003l0.001,1.934l4.498-0.003l0.001,2.111l-4.498,0.003
		l0.002,2.11l5.026-0.003l0.001,2.109l-7.312,0.005L152.952,95.133z"/>
	<path fill="#FFFFFF" d="M164.297,95.125l3.107-0.002l4.416,7.207h0.029l-0.005-7.21l2.286-0.002l0.007,10.374l-2.989,0.002
		l-4.533-7.382h-0.029l0.005,7.385l-2.286,0.002L164.297,95.125z"/>
	<path fill="#FFFFFF" d="M184.644,97.973c1.292-0.001,2.335,1.041,2.335,2.334c0.001,1.292-1.04,2.335-2.332,2.335
		c-1.293,0.001-2.334-1.04-2.335-2.332C182.311,99.017,183.351,97.974,184.644,97.973z"/>
</g>
<rect id="red" x="7.206" y="7.377" fill="#EC1C24" width="190.561" height="74.442"/>
<g>
	<path fill="#FFFFFF" d="M182.165,65.945h-12.866l-17.317-28.246v28.246h-10.308V23.282h13.335l16.846,27.539V23.282h10.31V65.945z"
		/>
</g>
<g>
	<path fill="#FFFFFF" d="M135.184,65.945h-30.415V23.282h29.584l-3.175,9.605h-16.1v6.568h17.998v9.609l-17.998,0v7.273h20.107
		V65.945z"/>
</g>
<g>
	<path fill="#FFFFFF" d="M95.391,65.945H67.927V23.282h29.359v9.605H78.239v6.568h17.994v9.609H78.239v7.273h20.328L95.391,65.945z"
		/>
</g>
<g>
	<path fill="#FFFFFF" d="M38.212,65.945l-15.528,0V23.282h14.298c15.975,0,25.138,7.816,25.138,21.445
		C62.119,59.305,49.726,65.945,38.212,65.945z M32.994,56.337h4.163c9.49,0,14.303-4.063,14.303-12.076
		c0-8.386-7.055-11.374-13.658-11.374h-4.807V56.337z"/>
</g>
</svg>
