<?xml version="1.0" encoding="UTF-8" standalone="no"?>
<svg
   xmlns:dc="http://purl.org/dc/elements/1.1/"
   xmlns:cc="http://creativecommons.org/ns#"
   xmlns:rdf="http://www.w3.org/1999/02/22-rdf-syntax-ns#"
   xmlns:svg="http://www.w3.org/2000/svg"
   xmlns="http://www.w3.org/2000/svg"
   viewBox="0 0 1228.3467 1795.28"
   height="1795.28"
   width="1228.3467"
   xml:space="preserve"
   id="svg2"
   version="1.1"><metadata
     id="metadata8"><rdf:RDF><cc:Work
         rdf:about=""><dc:format>image/svg+xml</dc:format><dc:type
           rdf:resource="http://purl.org/dc/dcmitype/StillImage" /></cc:Work></rdf:RDF></metadata><defs
     id="defs6"><clipPath
       id="clipPath20"
       clipPathUnits="userSpaceOnUse"><path
         id="path18"
         d="M 0,1346.46 H 921.26 V 0 H 0 Z" /></clipPath></defs><g
     transform="matrix(1.3333333,0,0,-1.3333333,0,1795.28)"
     id="g10"><path
       id="path12"
       style="fill:#ed1c24;fill-opacity:1;fill-rule:nonzero;stroke:none"
       d="M 681.691,398.704 H 239.202 v 442.488 h 442.489 z" /><g
       id="g14"><g
         clip-path="url(#clipPath20)"
         id="g16"><g
           transform="translate(358.395,678.8447)"
           id="g22"><path
             id="path24"
             style="fill:#ffffff;fill-opacity:1;fill-rule:nonzero;stroke:none"
             d="m 0,0 v -96.416 c 5.491,0 8.872,1.101 10.138,3.306 1.268,2.203 1.903,8.192 1.903,17.97 v 56.944 c 0,6.636 -0.214,10.894 -0.635,12.764 -0.422,1.87 -1.388,3.244 -2.896,4.119 C 7,-0.438 4.165,0 0,0 m -38.113,25.076 h 28.516 c 18.409,0 30.857,-0.845 37.344,-2.534 6.488,-1.69 11.422,-4.468 14.803,-8.327 3.378,-3.866 5.49,-8.165 6.335,-12.902 0.845,-4.741 1.27,-14.047 1.27,-27.929 v -51.33 c 0,-13.158 -0.621,-21.956 -1.857,-26.39 -1.238,-4.436 -3.395,-7.907 -6.472,-10.411 -3.077,-2.506 -6.883,-4.256 -11.41,-5.253 -4.524,-0.995 -11.345,-1.492 -20.458,-1.492 h -48.071 z" /></g><path
           id="path26"
           style="fill:#ffffff;fill-opacity:1;fill-rule:nonzero;stroke:none"
           d="m 451.767,557.353 h -37.659 v 120.135 h 37.659 z m 0,127.466 h -37.659 v 19.102 h 37.659 z" /><g
           transform="translate(493.9004,677.4873)"
           id="g28"><path
             id="path30"
             style="fill:#ffffff;fill-opacity:1;fill-rule:nonzero;stroke:none"
             d="M 0,0 -1.448,-15.799 C 3.861,-4.483 11.559,1.504 21.637,2.172 v -42.278 c -6.698,0 -11.617,-0.905 -14.757,-2.716 -3.136,-1.81 -5.068,-4.33 -5.793,-7.56 C 0.362,-53.609 0,-61.05 0,-72.697 v -47.438 H -36.572 V 0 Z" /></g><g
           transform="translate(597.4033,677.4873)"
           id="g32"><path
             id="path34"
             style="fill:#ffffff;fill-opacity:1;fill-rule:nonzero;stroke:none"
             d="m 0,0 -14.847,-47.848 19.284,-72.287 h -35.171 l -11.411,52.361 -0.044,-52.361 H -78.761 V 26.434 h 36.572 L -42.145,-35.094 -30.734,0 Z" /></g><path
           id="path36"
           style="fill:#ffffff;fill-opacity:1;fill-rule:nonzero;stroke:none"
           d="m 320.295,535.974 h 282.07 v 10.135 h -282.07 z" /></g></g></g></svg>